<svg width="16" height="16" viewBox="0 0 16 16" fill="none" xmlns="http://www.w3.org/2000/svg">
<path d="M8.15506 0.639648C6.70236 0.639648 5.28228 1.07043 4.0744 1.8775C2.86652 2.68458 1.92509 3.83171 1.36917 5.17384C0.813241 6.51596 0.667786 7.99279 0.951194 9.41759C1.2346 10.8424 1.93415 12.1511 2.96136 13.1783C3.98858 14.2056 5.29733 14.9051 6.72212 15.1885C8.14691 15.4719 9.62375 15.3265 10.9659 14.7705C12.308 14.2146 13.4551 13.2732 14.2622 12.0653C15.0693 10.8574 15.5001 9.43735 15.5001 7.98465C15.498 6.03726 14.7235 4.17023 13.3465 2.79322C11.9695 1.41621 10.1024 0.641705 8.15506 0.639648ZM14.3701 7.98465C14.3707 8.78199 14.2172 9.57193 13.9181 10.311L10.7611 8.36955C10.6269 8.28673 10.4767 8.23307 10.3204 8.21206L8.70876 7.99453C8.48668 7.96558 8.261 8.0028 8.05998 8.10155C7.85897 8.2003 7.69157 8.35617 7.57876 8.54965H6.96291L6.69454 7.99453C6.62034 7.83996 6.51176 7.70442 6.3771 7.59829C6.24245 7.49216 6.08529 7.41824 5.91766 7.38222L5.35266 7.26003L5.90495 6.28965H7.08509C7.27606 6.28927 7.46384 6.24069 7.63102 6.1484L8.49618 5.67097C8.57219 5.6286 8.64325 5.57791 8.70805 5.51983L10.6086 3.80082C10.7991 3.63006 10.9258 3.39945 10.9676 3.14703C11.0095 2.89461 10.964 2.63546 10.8388 2.41234L10.8134 2.36643C11.8769 2.87069 12.7755 3.66621 13.4051 4.66065C14.0346 5.65509 14.3692 6.80768 14.3701 7.98465ZM9.23633 1.86429L9.85006 2.96321L7.94954 4.68222L7.08509 5.15965H5.90495C5.70631 5.15935 5.5111 5.21143 5.339 5.31062C5.1669 5.40981 5.02399 5.55262 4.92467 5.72465L4.30812 6.80027L3.59127 4.89057L4.36391 3.0635C5.0478 2.53508 5.83453 2.15533 6.67369 1.94858C7.51285 1.74183 8.38594 1.71264 9.23704 1.86287L9.23633 1.86429ZM1.94006 7.98465C1.93912 7.06089 2.14521 6.14866 2.5432 5.31502L3.34409 7.45284C3.41083 7.62984 3.52094 7.78726 3.66432 7.91065C3.80771 8.03405 3.97978 8.11947 4.16475 8.15909L5.67824 8.48467L5.94732 9.04402C6.04071 9.23426 6.18543 9.3946 6.36514 9.50692C6.54486 9.61924 6.7524 9.67907 6.96432 9.67965H7.06885L6.55823 10.8259C6.46826 11.0277 6.43944 11.2515 6.47535 11.4695C6.51125 11.6876 6.61029 11.8903 6.76022 12.0526L6.7701 12.0625L8.15506 13.4892L8.01805 14.1954C6.39496 14.1576 4.85091 13.487 3.71538 12.3267C2.57984 11.1664 1.94275 9.60817 1.94006 7.98465ZM9.18477 14.1135L9.26458 13.7032C9.29738 13.5288 9.28891 13.3492 9.23986 13.1788C9.1908 13.0083 9.10252 12.8517 8.98208 12.7215C8.97861 12.7183 8.97531 12.715 8.97219 12.7116L7.59006 11.2857L8.55762 9.11465L10.1693 9.33217L13.3983 11.3181C12.9305 12.0528 12.3137 12.6812 11.588 13.1627C10.8622 13.6442 10.0435 13.9681 9.18477 14.1135Z" fill="white"/>
</svg>
