<svg width="16" height="15" viewBox="0 0 16 15" fill="none" xmlns="http://www.w3.org/2000/svg">
<path d="M8.15506 0.154999C6.70236 0.154999 5.28228 0.585775 4.0744 1.39285C2.86652 2.19993 1.92509 3.34706 1.36917 4.68919C0.813241 6.03131 0.667786 7.50815 0.951194 8.93294C1.2346 10.3577 1.93415 11.6665 2.96136 12.6937C3.98858 13.7209 5.29733 14.4205 6.72212 14.7039C8.14691 14.9873 9.62375 14.8418 10.9659 14.2859C12.308 13.73 13.4551 12.7885 14.2622 11.5807C15.0693 10.3728 15.5001 8.9527 15.5001 7.5C15.498 5.55261 14.7235 3.68558 13.3465 2.30857C11.9695 0.931561 10.1024 0.157055 8.15506 0.154999ZM14.3701 7.5C14.3707 8.29734 14.2172 9.08728 13.9181 9.82638L10.7611 7.8849C10.6269 7.80208 10.4767 7.74842 10.3204 7.72741L8.70876 7.50988C8.48668 7.48093 8.261 7.51815 8.05998 7.6169C7.85897 7.71565 7.69157 7.87153 7.57876 8.065H6.96291L6.69454 7.50988C6.62034 7.35531 6.51176 7.21977 6.3771 7.11364C6.24245 7.00751 6.08529 6.93359 5.91766 6.89757L5.35266 6.77538L5.90495 5.805H7.08509C7.27606 5.80462 7.46384 5.75604 7.63102 5.66375L8.49618 5.18632C8.57219 5.14395 8.64325 5.09326 8.70805 5.03519L10.6086 3.31617C10.7991 3.14541 10.9258 2.9148 10.9676 2.66238C11.0095 2.40996 10.964 2.15081 10.8388 1.92769L10.8134 1.88178C11.8769 2.38604 12.7755 3.18156 13.4051 4.176C14.0346 5.17044 14.3692 6.32303 14.3701 7.5ZM9.23633 1.37964L9.85006 2.47856L7.94954 4.19757L7.08509 4.675H5.90495C5.70631 4.67471 5.5111 4.72678 5.339 4.82597C5.1669 4.92516 5.02399 5.06797 4.92467 5.24L4.30812 6.31562L3.59127 4.40592L4.36391 2.57885C5.0478 2.05043 5.83453 1.67068 6.67369 1.46393C7.51285 1.25718 8.38594 1.22799 9.23704 1.37822L9.23633 1.37964ZM1.94006 7.5C1.93912 6.57624 2.14521 5.66401 2.5432 4.83037L3.34409 6.96819C3.41083 7.1452 3.52094 7.30261 3.66432 7.426C3.80771 7.5494 3.97978 7.63482 4.16475 7.67444L5.67824 8.00002L5.94732 8.55937C6.04071 8.74961 6.18543 8.90995 6.36514 9.02227C6.54486 9.13459 6.7524 9.19442 6.96432 9.195H7.06885L6.55823 10.3412C6.46826 10.5431 6.43944 10.7669 6.47535 10.9849C6.51125 11.2029 6.61029 11.4057 6.76022 11.568L6.7701 11.5779L8.15506 13.0045L8.01805 13.7108C6.39496 13.673 4.85091 13.0024 3.71538 11.842C2.57984 10.6817 1.94275 9.12352 1.94006 7.5ZM9.18477 13.6288L9.26458 13.2185C9.29738 13.0442 9.28891 12.8646 9.23986 12.6941C9.1908 12.5237 9.10252 12.367 8.98208 12.2368C8.97861 12.2337 8.97531 12.2304 8.97219 12.2269L7.59006 10.801L8.55762 8.63L10.1693 8.84752L13.3983 10.8335C12.9305 11.5682 12.3137 12.1965 11.588 12.678C10.8622 13.1595 10.0435 13.4834 9.18477 13.6288Z" fill="white"/>
</svg>
