<svg width="16" height="16" viewBox="0 0 16 16" fill="none" xmlns="http://www.w3.org/2000/svg">
<path d="M7.845 0.426514C6.3923 0.426514 4.97222 0.85729 3.76434 1.66437C2.55646 2.47145 1.61503 3.61858 1.05911 4.9607C0.503182 6.30283 0.357727 7.77966 0.641135 9.20445C0.924544 10.6292 1.62409 11.938 2.6513 12.9652C3.67852 13.9924 4.98727 14.692 6.41206 14.9754C7.83685 15.2588 9.31369 15.1133 10.6558 14.5574C11.9979 14.0015 13.1451 13.0601 13.9521 11.8522C14.7592 10.6443 15.19 9.22422 15.19 7.77151C15.1879 5.82413 14.4134 3.95709 13.0364 2.58009C11.6594 1.20308 9.79239 0.42857 7.845 0.426514ZM14.06 7.77151C14.0606 8.56885 13.9071 9.3588 13.608 10.0979L10.4511 8.15642C10.3168 8.07359 10.1667 8.01993 10.0104 7.99892L8.3987 7.7814C8.17662 7.75244 7.95094 7.78967 7.74992 7.88842C7.54891 7.98716 7.38151 8.14304 7.2687 8.33651H6.65285L6.38448 7.7814C6.31028 7.62683 6.2017 7.49129 6.06704 7.38515C5.93239 7.27902 5.77523 7.20511 5.6076 7.16908L5.0426 7.0469L5.59489 6.07651H6.77503C6.966 6.07614 7.15378 6.02755 7.32096 5.93526L8.18612 5.45784C8.26213 5.41547 8.33319 5.36478 8.398 5.3067L10.2985 3.58769C10.4891 3.41693 10.6157 3.18631 10.6576 2.93389C10.6994 2.68147 10.654 2.42233 10.5288 2.1992L10.5033 2.15329C11.5668 2.65755 12.4655 3.45307 13.095 4.44752C13.7245 5.44196 14.0592 6.59455 14.06 7.77151ZM8.92627 1.65115L9.54 2.75008L7.63948 4.46909L6.77503 4.94651H5.59489C5.39625 4.94622 5.20104 4.99829 5.02894 5.09749C4.85685 5.19668 4.71393 5.33949 4.61461 5.51151L3.99806 6.58713L3.28122 4.67743L4.05385 2.85036C4.73774 2.32194 5.52447 1.94219 6.36363 1.73544C7.20279 1.52869 8.07588 1.4995 8.92698 1.64974L8.92627 1.65115ZM1.63 7.77151C1.62906 6.84775 1.83516 5.93552 2.23314 5.10189L3.03403 7.23971C3.10077 7.41671 3.21088 7.57413 3.35427 7.69752C3.49765 7.82091 3.66972 7.90634 3.85469 7.94596L5.36818 8.27154L5.63726 8.83089C5.73065 9.02113 5.87537 9.18147 6.05508 9.29379C6.2348 9.40611 6.44234 9.46594 6.65426 9.46651H6.75879L6.24817 10.6128C6.1582 10.8146 6.12939 11.0384 6.16529 11.2564C6.20119 11.4745 6.30023 11.6772 6.45016 11.8395L6.46005 11.8494L7.845 13.276L7.70799 13.9823C6.08491 13.9445 4.54085 13.2739 3.40532 12.1136C2.26978 10.9532 1.6327 9.39503 1.63 7.77151ZM8.87471 13.9003L8.95452 13.49C8.98732 13.3157 8.97885 13.1361 8.9298 12.9656C8.88074 12.7952 8.79246 12.6386 8.67202 12.5083C8.66855 12.5052 8.66525 12.5019 8.66213 12.4984L7.28 11.0725L8.24756 8.90151L9.85923 9.11904L13.0882 11.105C12.6204 11.8397 12.0037 12.4681 11.2779 12.9495C10.5522 13.431 9.73346 13.7549 8.87471 13.9003Z" fill="white"/>
</svg>
